<svg xmlns="http://www.w3.org/2000/svg" version="1.1" xmlns:xlink="http://www.w3.org/1999/xlink" xmlns:svgjs="http://svgjs.dev/svgjs" width="1500" height="1500" viewBox="0 0 1500 1500"><rect width="1500" height="1500" fill="#000000"></rect><g transform="matrix(0.6666666666666666,0,0,0.6666666666666666,249.39444879758508,624.6563783705996)"><svg viewBox="0 0 396 99" data-background-color="#8d021f" preserveAspectRatio="xMidYMid meet" height="375" width="1500" xmlns="http://www.w3.org/2000/svg" xmlns:xlink="http://www.w3.org/1999/xlink"><g id="tight-bounds" transform="matrix(1,0,0,1,0.2397982761563071,0.13607416524254745)"><svg viewBox="0 0 395.52 98.72782151541465" height="98.72782151541465" width="395.52"><g><svg viewBox="0 0 470.5680710597828 117.46096412430015" height="98.72782151541465" width="395.52"><g transform="matrix(1,0,0,1,114.44755105978282,0)"><svg viewBox="0 0 356.12052 117.46096412430015" height="117.46096412430015" width="356.12052"><g><path d="M0 117.461v-117.461h356.121v117.461z" fill="#ffffff" stroke="transparent" stroke-width="0" rx="0%" data-fill-palette-color="tertiary"></path><path d="M3.283 114.178v-110.895h349.554v110.895z" fill="#000000" stroke="transparent" stroke-width="0" rx="0%" data-fill-palette-color="quaternary"></path><path d="M9.85 107.611v-97.761h336.421v97.761z" fill="#ffffff" stroke="transparent" stroke-width="0" data-fill-palette-color="tertiary"></path></g><g transform="matrix(1,0,0,1,19.69974,19.69974)" id="textblocktransform"><svg viewBox="0 0 316.72104 78.06148412430015" height="78.06148412430015" width="316.72104" id="textblock"><g><svg viewBox="0 0 316.72104 57.18604537283714" height="57.18604537283714" width="316.72104"><g transform="matrix(1,0,0,1,0,0)"><svg width="316.72104" viewBox="1.9300000000000002 -40.84 228.54 42.080000000000005" height="57.18604537283714" data-palette-color="#ffffff"><path d="M14.11 0.2L2.93-35.99 9.62-35.99 17.19-7.76 17.19 0.2 14.11 0.2ZM19.19-9.33L26.81-35.99 33.45-35.99 21.73 0.2 19.19 0.2 19.19-9.33ZM46.38-27.54L46.38 0 40.43 0 40.43-27.54 46.38-27.54ZM46.92-36.33L46.92-36.33Q46.92-34.86 45.9-33.86 44.87-32.86 43.41-32.86L43.41-32.86Q41.94-32.86 40.94-33.89 39.94-34.91 39.94-36.33L39.94-36.33Q39.94-37.79 40.96-38.82 41.99-39.84 43.41-39.84L43.41-39.84Q44.87-39.84 45.9-38.82 46.92-37.79 46.92-36.33ZM54.05-19.68L54.05-19.68Q54.05-21.53 54.73-23.02 55.41-24.51 56.64-25.56 57.86-26.61 59.39-27.22 60.93-27.83 62.59-27.98L62.59-27.98 62.59-23.1Q61.32-22.85 60.62-22.07 59.91-21.29 59.91-19.87L59.91-19.87Q59.91-18.7 60.66-17.99 61.42-17.29 62.59-16.75L62.59-16.75 62.59-11.52Q61.76-11.77 60.91-12.08 60.05-12.4 59.22-12.79L59.22-12.79Q56.64-14.16 55.34-15.67 54.05-17.19 54.05-19.68ZM72.26-25.78L70.36-21.73Q69.04-22.41 67.55-22.75 66.06-23.1 64.59-23.19L64.59-23.19 64.59-28.03Q66.79-27.93 68.65-27.42 70.5-26.9 72.26-25.78L72.26-25.78ZM54.15-2.2L56.64-6.15Q57.61-5.47 58.95-4.88 60.3-4.3 62.35-4.3L62.35-4.3 62.59-4.3 62.59 0.24Q61.37 0.24 60.35 0.17 59.32 0.1 58.32-0.17 57.32-0.44 56.29-0.93 55.27-1.42 54.15-2.2L54.15-2.2ZM64.59-10.79L64.59-15.97Q66.06-15.48 67.57-14.89 69.09-14.31 70.33-13.43 71.58-12.55 72.38-11.25 73.19-9.96 73.19-8.01L73.19-8.01Q73.19-6.1 72.5-4.69 71.82-3.27 70.67-2.25 69.53-1.22 67.96-0.63 66.4-0.05 64.59 0.15L64.59 0.15 64.59-4.49Q66.25-4.79 67.16-5.54 68.06-6.3 68.06-7.57L68.06-7.57Q68.06-8.84 67.06-9.55 66.06-10.25 64.59-10.79L64.59-10.79ZM86.76-27.54L86.76 0 80.8 0 80.8-27.54 86.76-27.54ZM87.3-36.33L87.3-36.33Q87.3-34.86 86.27-33.86 85.25-32.86 83.78-32.86L83.78-32.86Q82.32-32.86 81.32-33.89 80.31-34.91 80.31-36.33L80.31-36.33Q80.31-37.79 81.34-38.82 82.37-39.84 83.78-39.84L83.78-39.84Q85.25-39.84 86.27-38.82 87.3-37.79 87.3-36.33ZM108-23.1L108-27.69Q110.68-27.54 112.88-26.39 115.08-25.24 116.57-23.36 118.06-21.48 118.89-18.99 119.72-16.5 119.72-13.67L119.72-13.67Q119.72-10.84 118.86-8.37 118.01-5.91 116.49-4.08 114.98-2.25 112.78-1.12 110.59 0 108 0.2L108 0.2 108-4.49Q110.44-5.03 111.98-7.57 113.52-10.11 113.52-13.67L113.52-13.67Q113.52-15.48 113.15-17.07 112.78-18.65 112.05-19.92 111.32-21.19 110.29-22.02 109.27-22.85 108-23.1L108-23.1ZM94.37-13.77L94.37-13.77Q94.37-16.6 95.2-19.04 96.03-21.48 97.57-23.32 99.11-25.15 101.26-26.27 103.41-27.39 106-27.64L106-27.64 106-23.1Q103.55-22.56 102.09-20.02 100.62-17.48 100.62-13.92L100.62-13.92Q100.62-12.11 100.99-10.5 101.36-8.89 102.04-7.62 102.72-6.35 103.73-5.52 104.73-4.69 106-4.49L106-4.49 106 0.2Q103.31 0 101.16-1.15 99.01-2.29 97.5-4.15 95.99-6.01 95.18-8.5 94.37-10.99 94.37-13.77ZM125.67-35.99L153.06-35.99 153.06-31.98 142.32-31.98 142.32 0 136.41 0 136.41-31.98 125.67-31.98 125.67-35.99ZM164.54-8.3L164.54-8.3Q164.54-6.1 165.44-5.03 166.34-3.96 168.05-3.76L168.05-3.76 168.05 0.2Q167.86 0.24 167.42 0.24L167.42 0.24Q165.76 0.24 164.22-0.2 162.68-0.63 161.51-1.61 160.34-2.59 159.68-4.2 159.02-5.81 159.02-8.15L159.02-8.15Q159.02-10.4 159.97-12.04 160.92-13.67 162.41-14.72 163.9-15.77 165.81-16.28 167.71-16.8 169.66-16.8L169.66-16.8 171.81-16.8 171.81-13.33 170.74-13.33Q169.76-13.33 168.69-13.13 167.61-12.94 166.68-12.4 165.76-11.87 165.15-10.86 164.54-9.86 164.54-8.3ZM179.72-8.54L179.72-8.15Q179.72-7.76 179.77-7.01 179.82-6.25 179.97-5.47 180.11-4.69 180.43-4.05 180.75-3.42 181.28-3.22L181.28-3.22 179.72 0.05Q179.09 0.05 178.38-0.24 177.67-0.54 177.01-1.07 176.35-1.61 175.89-2.27 175.42-2.93 175.18-3.71L175.18-3.71Q174.69-2.49 173.25-1.54 171.81-0.59 170.05-0.15L170.05-0.15 170.05-3.86Q171.23-4.1 172.18-4.81 173.13-5.52 173.81-6.49L173.81-6.49 173.81-16.8Q173.81-19.19 173.57-20.61 173.32-22.02 172.74-22.68 172.15-23.34 171.3-23.51 170.44-23.68 169.27-23.68L169.27-23.68Q168.2-23.68 167.25-23.41 166.29-23.14 165.49-22.78 164.68-22.41 164.07-21.97 163.46-21.53 163.17-21.29L163.17-21.29 160.97-24.66Q161.46-25.2 162.44-25.76 163.41-26.32 164.68-26.76 165.95-27.2 167.44-27.47 168.93-27.73 170.54-27.73L170.54-27.73Q172.01-27.73 173.4-27.44 174.79-27.15 175.94-26.46 177.08-25.78 177.94-24.63 178.79-23.49 179.14-21.78L179.14-21.78Q179.48-20.07 179.6-18.33 179.72-16.6 179.72-14.89L179.72-14.89 179.72-8.54ZM194.9-37.94L194.9-8.4Q194.9-6.74 195.34-5.79 195.78-4.83 196.56-4.37 197.35-3.91 198.35-3.76 199.35-3.61 200.52-3.61L200.52-3.61 200.52 0Q199.88 0.1 199.2 0.15L199.2 0.15Q198.66 0.2 197.93 0.22 197.2 0.24 196.47 0.24L196.47 0.24Q195.73 0.24 195 0.2 194.27 0.15 193.68 0.05L193.68 0.05Q192.02-0.29 191.1-1.42 190.17-2.54 189.68-3.93 189.19-5.32 189.07-6.64 188.95-7.96 188.95-8.69L188.95-8.69 188.95-9.28 188.95-37.94 194.9-37.94ZM228.2-27.54L218.53-13.82 229.47 0 222.73 0 214.73-10.55 214.73-17.33 221.56-27.54 228.2-27.54ZM212.72 0L206.77 0 206.77-37.94 212.72-37.94 212.72 0Z" opacity="1" transform="matrix(1,0,0,1,0,0)" fill="#000000" class="wordmark-text-0" data-fill-palette-color="quaternary" id="text-0"></path></svg></g></svg></g><g transform="matrix(1,0,0,1,0,63.752625372837144)"><svg viewBox="0 0 185.328922584 14.308858751463008" height="14.308858751463008" width="185.328922584"><g transform="matrix(1,0,0,1,0,0)"><svg width="185.328922584" viewBox="3.0999999999999996 -38 635.59 50" height="14.308858751463008" data-palette-color="#ffffff"><path d="M7.9 0L4.1-34.85 9-35.35 11.7-5.05 23.9-31.35 29.85-31.35 32.65-5.05 46-35.2 50.2-33.25 34.8 0 28.9 0 26.05-26.3 13.8 0 7.9 0ZM69.35-18.4L69.35-18.4Q69.35-20.3 68.22-21.48 67.1-22.65 65.3-22.65L65.3-22.65Q63.55-22.65 61.47-21.4 59.4-20.15 57.7-17.5 56-14.85 55.25-10.65L55.25-10.65 53.4 0 48.9 0 55.4-37 59.9-37 57-20.55Q58.55-23.3 61.07-24.95 63.6-26.6 66.4-26.6L66.4-26.6Q69.85-26.6 71.87-24.53 73.9-22.45 73.9-19.45L73.9-19.45Q73.9-18.2 73.6-16.3L73.6-16.3 70.75 0 66.25 0 69-15.55Q69.25-16.75 69.3-17.32 69.35-17.9 69.35-18.4ZM89.55 0.6L89.55 0.6Q86.25 0.6 83.72-0.83 81.2-2.25 79.77-4.93 78.34-7.6 78.34-11.25L78.34-11.25Q78.34-15.4 80.07-18.9 81.8-22.4 84.97-24.5 88.15-26.6 92.4-26.6L92.4-26.6Q95.3-26.6 97.32-25.5 99.34-24.4 100.45-22.65 101.55-20.9 101.55-18.9L101.55-18.9Q101.55-16.15 100.25-14.35 98.95-12.55 96.9-11.58 94.84-10.6 92.47-10.2 90.09-9.8 87.95-9.8L87.95-9.8Q86.59-9.8 85.27-9.93 83.95-10.05 82.95-10.2L82.95-10.2Q83.34-6.9 85.3-5.15 87.25-3.4 90.3-3.4L90.3-3.4Q92.8-3.4 94.75-4.05 96.7-4.7 98.05-5.35L98.05-5.35 98.45-1.35Q96.95-0.65 94.65-0.03 92.34 0.6 89.55 0.6ZM92.05-22.8L92.05-22.8Q89.7-22.8 87.8-21.63 85.9-20.45 84.67-18.43 83.45-16.4 83.05-13.8L83.05-13.8Q84.2-13.6 85.37-13.48 86.55-13.35 87.95-13.35L87.95-13.35Q92.15-13.35 94.59-14.53 97.05-15.7 97.05-18.55L97.05-18.55Q97.05-20.3 95.67-21.55 94.3-22.8 92.05-22.8ZM104.99 0L108.29-18.7Q108.34-18.95 108.37-19.28 108.39-19.6 108.39-19.95L108.39-19.95Q108.39-21.35 107.59-21.93 106.79-22.5 105.49-22.5L105.49-22.5 107.04-26Q109.69-26 111.12-24.73 112.54-23.45 112.54-20.95L112.54-20.95 112.54-19.95Q113.99-23.5 116.27-25.05 118.54-26.6 121.44-26.6L121.44-26.6Q122.59-26.6 123.42-26.43 124.24-26.25 124.79-26L124.79-26 122.79-21.6Q122.19-21.85 121.54-21.95 120.89-22.05 120.04-22.05L120.04-22.05Q118.24-22.05 116.47-20.78 114.69-19.5 113.27-16.55 111.84-13.6 110.94-8.45L110.94-8.45 109.49 0 104.99 0ZM135.19 0.6L135.19 0.6Q131.89 0.6 129.37-0.83 126.84-2.25 125.42-4.93 123.99-7.6 123.99-11.25L123.99-11.25Q123.99-15.4 125.72-18.9 127.44-22.4 130.62-24.5 133.79-26.6 138.04-26.6L138.04-26.6Q140.94-26.6 142.97-25.5 144.99-24.4 146.09-22.65 147.19-20.9 147.19-18.9L147.19-18.9Q147.19-16.15 145.89-14.35 144.59-12.55 142.54-11.58 140.49-10.6 138.12-10.2 135.74-9.8 133.59-9.8L133.59-9.8Q132.24-9.8 130.92-9.93 129.59-10.05 128.59-10.2L128.59-10.2Q128.99-6.9 130.94-5.15 132.89-3.4 135.94-3.4L135.94-3.4Q138.44-3.4 140.39-4.05 142.34-4.7 143.69-5.35L143.69-5.35 144.09-1.35Q142.59-0.65 140.29-0.03 137.99 0.6 135.19 0.6ZM137.69-22.8L137.69-22.8Q135.34-22.8 133.44-21.63 131.54-20.45 130.32-18.43 129.09-16.4 128.69-13.8L128.69-13.8Q129.84-13.6 131.02-13.48 132.19-13.35 133.59-13.35L133.59-13.35Q137.79-13.35 140.24-14.53 142.69-15.7 142.69-18.55L142.69-18.55Q142.69-20.3 141.32-21.55 139.94-22.8 137.69-22.8ZM165.14-1L170.99-34.6Q173.04-35.05 175.09-35.33 177.14-35.6 180.14-35.6L180.14-35.6Q184.14-35.6 186.96-34.35 189.79-33.1 191.59-30.93 193.39-28.75 194.24-25.98 195.09-23.2 195.09-20.15L195.09-20.15Q195.09-14.15 192.69-9.45 190.29-4.75 185.89-2.08 181.49 0.6 175.39 0.6L175.39 0.6Q172.19 0.6 169.69 0.18 167.19-0.25 165.14-1L165.14-1ZM179.74-31.6L179.74-31.6Q178.44-31.6 177.29-31.48 176.14-31.35 175.14-31.1L175.14-31.1 170.44-4.15Q171.59-3.85 172.89-3.68 174.19-3.5 175.69-3.5L175.69-3.5Q180.04-3.5 183.31-5.55 186.59-7.6 188.39-11.28 190.19-14.95 190.19-19.75L190.19-19.75Q190.19-22.9 189.09-25.6 187.99-28.3 185.69-29.95 183.39-31.6 179.74-31.6ZM205.88-30.45L205.88-30.45Q204.48-30.45 203.76-31.28 203.03-32.1 203.03-33.2L203.03-33.2Q203.03-34.8 204.03-35.77 205.03-36.75 206.53-36.75L206.53-36.75Q207.93-36.75 208.66-35.93 209.38-35.1 209.38-34L209.38-34Q209.38-32.45 208.38-31.45 207.38-30.45 205.88-30.45ZM207.08-26L202.53 0 198.03 0 202.58-26 207.08-26ZM230.83-24.15L229.03-20.35Q227.58-21.35 225.81-22.1 224.03-22.85 221.78-22.85L221.78-22.85Q219.43-22.85 218.13-22.05 216.83-21.25 216.83-19.95L216.83-19.95Q216.83-19.2 217.26-18.53 217.68-17.85 218.81-17.1 219.93-16.35 221.98-15.3L221.98-15.3Q225.38-13.6 227.03-11.78 228.68-9.95 228.68-7.3L228.68-7.3Q228.68-4.65 227.28-2.9 225.88-1.15 223.53-0.28 221.18 0.6 218.23 0.6L218.23 0.6Q215.18 0.6 212.86-0.18 210.53-0.95 208.83-2.2L208.83-2.2 211.38-5.9Q212.73-4.8 214.58-4.05 216.43-3.3 218.63-3.3L218.63-3.3Q221.13-3.3 222.58-4.25 224.03-5.2 224.03-6.6L224.03-6.6Q224.03-7.9 222.96-9 221.88-10.1 218.78-11.65L218.78-11.65Q216.28-12.9 214.88-14.08 213.48-15.25 212.93-16.6 212.38-17.95 212.38-19.7L212.38-19.7Q212.38-21.7 213.58-23.25 214.78-24.8 216.93-25.7 219.08-26.6 221.88-26.6L221.88-26.6Q224.68-26.6 226.91-25.88 229.13-25.15 230.83-24.15L230.83-24.15ZM233.28-21.15L233.93-25.05 238.53-25.05 240.93-33.25 244.38-33.25 242.93-25.05 250.13-25.05 249.48-21.15 242.23-21.15 240.13-9Q240.03-8.45 239.98-7.98 239.93-7.5 239.93-7.1L239.93-7.1Q239.93-5.35 240.98-4.38 242.03-3.4 243.73-3.4L243.73-3.4Q245.18-3.4 246.18-3.83 247.18-4.25 247.98-4.7L247.98-4.7 248.53-0.8Q247.58-0.25 246.15 0.18 244.73 0.6 242.98 0.6L242.98 0.6Q241.13 0.6 239.4-0.15 237.68-0.9 236.58-2.53 235.48-4.15 235.48-6.75L235.48-6.75Q235.48-7.85 235.68-9.2L235.68-9.2 237.73-21.15 233.28-21.15ZM252.08-10.25L252.08-10.25Q252.08-15.1 254.2-18.78 256.33-22.45 260.08-24.53 263.83-26.6 268.63-26.6L268.63-26.6Q271.58-26.6 273.8-26 276.03-25.4 277.48-24.8L277.48-24.8 274.33-7.05Q274.28-6.8 274.25-6.48 274.23-6.15 274.23-5.8L274.23-5.8Q274.23-4.4 275.03-3.83 275.83-3.25 277.13-3.25L277.13-3.25 275.58 0.25Q272.88 0.25 271.45-1.07 270.03-2.4 270.03-5.2L270.03-5.2Q268.63-2.8 266.5-1.1 264.38 0.6 261.53 0.6L261.53 0.6Q259.08 0.6 256.93-0.73 254.78-2.05 253.43-4.48 252.08-6.9 252.08-10.25ZM271.18-14.4L272.53-22.15Q271.58-22.45 270.55-22.63 269.53-22.8 268.08-22.8L268.08-22.8Q264.63-22.8 262.08-21.25 259.53-19.7 258.1-16.98 256.68-14.25 256.68-10.8L256.68-10.8Q256.68-8.4 257.55-6.75 258.43-5.1 259.83-4.25 261.23-3.4 262.73-3.4L262.73-3.4Q264.78-3.4 266.48-4.8 268.18-6.2 269.4-8.7 270.63-11.2 271.18-14.4L271.18-14.4ZM298.02-22.65L298.02-22.65Q296.27-22.65 294.22-21.35 292.17-20.05 290.45-17.32 288.72-14.6 287.97-10.35L287.97-10.35 286.17 0 281.67 0 286.22-26 290.57-26 289.47-20Q291.02-23 293.65-24.8 296.27-26.6 299.17-26.6L299.17-26.6Q302.57-26.6 304.62-24.53 306.67-22.45 306.67-19.45L306.67-19.45Q306.67-18.2 306.37-16.3L306.37-16.3 303.52 0 299.02 0 301.77-15.55Q302.02-16.75 302.07-17.32 302.12-17.9 302.12-18.4L302.12-18.4Q302.12-20.35 301-21.5 299.87-22.65 298.02-22.65ZM332.67-24.6L330.82-20.75Q329.57-21.55 328.12-22.08 326.67-22.6 324.92-22.6L324.92-22.6Q322.17-22.6 320.1-21.15 318.02-19.7 316.87-17.23 315.72-14.75 315.72-11.65L315.72-11.65Q315.72-7.85 317.65-5.63 319.57-3.4 322.82-3.4L322.82-3.4Q324.72-3.4 326.17-3.85 327.62-4.3 328.82-4.9L328.82-4.9 329.37-0.95Q328.12-0.4 326.35 0.1 324.57 0.6 322.07 0.6L322.07 0.6Q318.82 0.6 316.35-0.85 313.87-2.3 312.5-4.93 311.12-7.55 311.12-11.05L311.12-11.05Q311.12-15.25 312.85-18.78 314.57-22.3 317.75-24.45 320.92-26.6 325.27-26.6L325.27-26.6Q327.62-26.6 329.45-26.03 331.27-25.45 332.67-24.6L332.67-24.6ZM344.57 0.6L344.57 0.6Q341.27 0.6 338.74-0.83 336.22-2.25 334.79-4.93 333.37-7.6 333.37-11.25L333.37-11.25Q333.37-15.4 335.09-18.9 336.82-22.4 339.99-24.5 343.17-26.6 347.42-26.6L347.42-26.6Q350.32-26.6 352.34-25.5 354.37-24.4 355.47-22.65 356.57-20.9 356.57-18.9L356.57-18.9Q356.57-16.15 355.27-14.35 353.97-12.55 351.92-11.58 349.87-10.6 347.49-10.2 345.12-9.8 342.97-9.8L342.97-9.8Q341.62-9.8 340.29-9.93 338.97-10.05 337.97-10.2L337.97-10.2Q338.37-6.9 340.32-5.15 342.27-3.4 345.32-3.4L345.32-3.4Q347.82-3.4 349.77-4.05 351.72-4.7 353.07-5.35L353.07-5.35 353.47-1.35Q351.97-0.65 349.67-0.03 347.37 0.6 344.57 0.6ZM347.07-22.8L347.07-22.8Q344.72-22.8 342.82-21.63 340.92-20.45 339.69-18.43 338.47-16.4 338.07-13.8L338.07-13.8Q339.22-13.6 340.39-13.48 341.57-13.35 342.97-13.35L342.97-13.35Q347.17-13.35 349.62-14.53 352.07-15.7 352.07-18.55L352.07-18.55Q352.07-20.3 350.69-21.55 349.32-22.8 347.07-22.8ZM374.51-1L380.36-34.6Q382.41-35.05 384.46-35.33 386.51-35.6 389.51-35.6L389.51-35.6Q393.51-35.6 396.34-34.35 399.16-33.1 400.96-30.93 402.76-28.75 403.61-25.98 404.46-23.2 404.46-20.15L404.46-20.15Q404.46-14.15 402.06-9.45 399.66-4.75 395.26-2.08 390.86 0.6 384.76 0.6L384.76 0.6Q381.56 0.6 379.06 0.18 376.56-0.25 374.51-1L374.51-1ZM389.11-31.6L389.11-31.6Q387.81-31.6 386.66-31.48 385.51-31.35 384.51-31.1L384.51-31.1 379.81-4.15Q380.96-3.85 382.26-3.68 383.56-3.5 385.06-3.5L385.06-3.5Q389.41-3.5 392.69-5.55 395.96-7.6 397.76-11.28 399.56-14.95 399.56-19.75L399.56-19.75Q399.56-22.9 398.46-25.6 397.36-28.3 395.06-29.95 392.76-31.6 389.11-31.6ZM415.26-30.45L415.26-30.45Q413.86-30.45 413.14-31.28 412.41-32.1 412.41-33.2L412.41-33.2Q412.41-34.8 413.41-35.77 414.41-36.75 415.91-36.75L415.91-36.75Q417.31-36.75 418.04-35.93 418.76-35.1 418.76-34L418.76-34Q418.76-32.45 417.76-31.45 416.76-30.45 415.26-30.45ZM416.46-26L411.91 0 407.41 0 411.96-26 416.46-26ZM440.21-24.15L438.41-20.35Q436.96-21.35 435.18-22.1 433.41-22.85 431.16-22.85L431.16-22.85Q428.81-22.85 427.51-22.05 426.21-21.25 426.21-19.95L426.21-19.95Q426.21-19.2 426.63-18.53 427.06-17.85 428.18-17.1 429.31-16.35 431.36-15.3L431.36-15.3Q434.76-13.6 436.41-11.78 438.06-9.95 438.06-7.3L438.06-7.3Q438.06-4.65 436.66-2.9 435.26-1.15 432.91-0.28 430.56 0.6 427.61 0.6L427.61 0.6Q424.56 0.6 422.23-0.18 419.91-0.95 418.21-2.2L418.21-2.2 420.76-5.9Q422.11-4.8 423.96-4.05 425.81-3.3 428.01-3.3L428.01-3.3Q430.51-3.3 431.96-4.25 433.41-5.2 433.41-6.6L433.41-6.6Q433.41-7.9 432.33-9 431.26-10.1 428.16-11.65L428.16-11.65Q425.66-12.9 424.26-14.08 422.86-15.25 422.31-16.6 421.76-17.95 421.76-19.7L421.76-19.7Q421.76-21.7 422.96-23.25 424.16-24.8 426.31-25.7 428.46-26.6 431.26-26.6L431.26-26.6Q434.06-26.6 436.28-25.88 438.51-25.15 440.21-24.15L440.21-24.15ZM442.41-10.25L442.41-10.25Q442.41-15.1 444.53-18.78 446.66-22.45 450.41-24.53 454.16-26.6 458.96-26.6L458.96-26.6Q461.91-26.6 464.13-26 466.36-25.4 467.81-24.8L467.81-24.8 464.66-7.05Q464.61-6.8 464.58-6.48 464.56-6.15 464.56-5.8L464.56-5.8Q464.56-4.4 465.36-3.83 466.16-3.25 467.46-3.25L467.46-3.25 465.91 0.25Q463.21 0.25 461.78-1.07 460.36-2.4 460.36-5.2L460.36-5.2Q458.96-2.8 456.83-1.1 454.71 0.6 451.86 0.6L451.86 0.6Q449.41 0.6 447.26-0.73 445.11-2.05 443.76-4.48 442.41-6.9 442.41-10.25ZM461.51-14.4L462.86-22.15Q461.91-22.45 460.88-22.63 459.86-22.8 458.41-22.8L458.41-22.8Q454.96-22.8 452.41-21.25 449.86-19.7 448.43-16.98 447.01-14.25 447.01-10.8L447.01-10.8Q447.01-8.4 447.88-6.75 448.76-5.1 450.16-4.25 451.56-3.4 453.06-3.4L453.06-3.4Q455.11-3.4 456.81-4.8 458.51-6.2 459.73-8.7 460.96-11.2 461.51-14.4L461.51-14.4ZM473.4-22.5L475-26Q480.2-26 480.2-21.5L480.2-21.5 480.2-20.45Q481.65-23.15 483.95-24.88 486.25-26.6 489.3-26.6L489.3-26.6Q492-26.6 494-25.23 496-23.85 497.08-21.43 498.15-19 498.15-15.8L498.15-15.8Q498.15-12.1 497.08-9.08 496-6.05 494.15-3.88 492.3-1.7 490-0.55 487.7 0.6 485.25 0.6L485.25 0.6Q482.85 0.6 480.78-0.6 478.7-1.8 477.55-3.55L477.55-3.55 475 11 470.5 11 475.7-18.75Q475.85-19.6 475.85-20.15L475.85-20.15Q475.85-22.5 473.4-22.5L473.4-22.5ZM484.85-3.4L484.85-3.4Q487.2-3.4 489.18-4.93 491.15-6.45 492.35-9.15 493.55-11.85 493.55-15.35L493.55-15.35Q493.55-18.75 492-20.73 490.45-22.7 487.95-22.7L487.95-22.7Q485.95-22.7 484.13-21.45 482.3-20.2 481-17.95 479.7-15.7 479.15-12.65L479.15-12.65 478.25-7.6Q479.35-5.6 481.1-4.5 482.85-3.4 484.85-3.4ZM503.25-22.5L504.85-26Q510.05-26 510.05-21.5L510.05-21.5 510.05-20.45Q511.5-23.15 513.8-24.88 516.1-26.6 519.15-26.6L519.15-26.6Q521.85-26.6 523.85-25.23 525.85-23.85 526.93-21.43 528-19 528-15.8L528-15.8Q528-12.1 526.93-9.08 525.85-6.05 524-3.88 522.15-1.7 519.85-0.55 517.55 0.6 515.1 0.6L515.1 0.6Q512.7 0.6 510.63-0.6 508.55-1.8 507.4-3.55L507.4-3.55 504.85 11 500.35 11 505.55-18.75Q505.7-19.6 505.7-20.15L505.7-20.15Q505.7-22.5 503.25-22.5L503.25-22.5ZM514.7-3.4L514.7-3.4Q517.05-3.4 519.03-4.93 521-6.45 522.2-9.15 523.4-11.85 523.4-15.35L523.4-15.35Q523.4-18.75 521.85-20.73 520.3-22.7 517.8-22.7L517.8-22.7Q515.8-22.7 513.98-21.45 512.15-20.2 510.85-17.95 509.55-15.7 509-12.65L509-12.65 508.1-7.6Q509.2-5.6 510.95-4.5 512.7-3.4 514.7-3.4ZM543.15 0.6L543.15 0.6Q539.85 0.6 537.32-0.83 534.8-2.25 533.37-4.93 531.95-7.6 531.95-11.25L531.95-11.25Q531.95-15.4 533.67-18.9 535.4-22.4 538.57-24.5 541.75-26.6 546-26.6L546-26.6Q548.9-26.6 550.92-25.5 552.95-24.4 554.05-22.65 555.15-20.9 555.15-18.9L555.15-18.9Q555.15-16.15 553.85-14.35 552.55-12.55 550.5-11.58 548.45-10.6 546.07-10.2 543.7-9.8 541.55-9.8L541.55-9.8Q540.2-9.8 538.87-9.93 537.55-10.05 536.55-10.2L536.55-10.2Q536.95-6.9 538.9-5.15 540.85-3.4 543.9-3.4L543.9-3.4Q546.4-3.4 548.35-4.05 550.3-4.7 551.65-5.35L551.65-5.35 552.05-1.35Q550.55-0.65 548.25-0.03 545.95 0.6 543.15 0.6ZM545.65-22.8L545.65-22.8Q543.3-22.8 541.4-21.63 539.5-20.45 538.27-18.43 537.05-16.4 536.65-13.8L536.65-13.8Q537.8-13.6 538.97-13.48 540.15-13.35 541.55-13.35L541.55-13.35Q545.75-13.35 548.2-14.53 550.65-15.7 550.65-18.55L550.65-18.55Q550.65-20.3 549.27-21.55 547.9-22.8 545.65-22.8ZM557.85-10.25L557.85-10.25Q557.85-15.1 559.97-18.78 562.1-22.45 565.85-24.53 569.6-26.6 574.39-26.6L574.39-26.6Q577.35-26.6 579.57-26 581.79-25.4 583.25-24.8L583.25-24.8 580.1-7.05Q580.04-6.8 580.02-6.48 580-6.15 580-5.8L580-5.8Q580-4.4 580.79-3.83 581.6-3.25 582.89-3.25L582.89-3.25 581.35 0.25Q578.64 0.25 577.22-1.07 575.79-2.4 575.79-5.2L575.79-5.2Q574.39-2.8 572.27-1.1 570.14 0.6 567.29 0.6L567.29 0.6Q564.85 0.6 562.7-0.73 560.54-2.05 559.2-4.48 557.85-6.9 557.85-10.25ZM576.95-14.4L578.29-22.15Q577.35-22.45 576.32-22.63 575.29-22.8 573.85-22.8L573.85-22.8Q570.39-22.8 567.85-21.25 565.29-19.7 563.87-16.98 562.45-14.25 562.45-10.8L562.45-10.8Q562.45-8.4 563.32-6.75 564.2-5.1 565.6-4.25 567-3.4 568.5-3.4L568.5-3.4Q570.54-3.4 572.25-4.8 573.95-6.2 575.17-8.7 576.39-11.2 576.95-14.4L576.95-14.4ZM588.19 0L591.49-18.7Q591.54-18.95 591.57-19.28 591.59-19.6 591.59-19.95L591.59-19.95Q591.59-21.35 590.79-21.93 589.99-22.5 588.69-22.5L588.69-22.5 590.24-26Q592.89-26 594.32-24.73 595.74-23.45 595.74-20.95L595.74-20.95 595.74-19.95Q597.19-23.5 599.47-25.05 601.74-26.6 604.64-26.6L604.64-26.6Q605.79-26.6 606.62-26.43 607.44-26.25 607.99-26L607.99-26 605.99-21.6Q605.39-21.85 604.74-21.95 604.09-22.05 603.24-22.05L603.24-22.05Q601.44-22.05 599.67-20.78 597.89-19.5 596.47-16.55 595.04-13.6 594.14-8.45L594.14-8.45 592.69 0 588.19 0ZM627.69-24.15L625.89-20.35Q624.44-21.35 622.66-22.1 620.89-22.85 618.64-22.85L618.64-22.85Q616.29-22.85 614.99-22.05 613.69-21.25 613.69-19.95L613.69-19.95Q613.69-19.2 614.11-18.53 614.54-17.85 615.66-17.1 616.79-16.35 618.84-15.3L618.84-15.3Q622.24-13.6 623.89-11.78 625.54-9.95 625.54-7.3L625.54-7.3Q625.54-4.65 624.14-2.9 622.74-1.15 620.39-0.28 618.04 0.6 615.09 0.6L615.09 0.6Q612.04 0.6 609.71-0.18 607.39-0.95 605.69-2.2L605.69-2.2 608.24-5.9Q609.59-4.8 611.44-4.05 613.29-3.3 615.49-3.3L615.49-3.3Q617.99-3.3 619.44-4.25 620.89-5.2 620.89-6.6L620.89-6.6Q620.89-7.9 619.81-9 618.74-10.1 615.64-11.65L615.64-11.65Q613.14-12.9 611.74-14.08 610.34-15.25 609.79-16.6 609.24-17.95 609.24-19.7L609.24-19.7Q609.24-21.7 610.44-23.25 611.64-24.8 613.79-25.7 615.94-26.6 618.74-26.6L618.74-26.6Q621.54-26.6 623.76-25.88 625.99-25.15 627.69-24.15L627.69-24.15ZM633.99 0.6L633.99 0.6Q632.59 0.6 631.74-0.28 630.89-1.15 630.89-2.25L630.89-2.25Q630.89-4.1 632.04-5.1 633.19-6.1 634.59-6.1L634.59-6.1Q636.04-6.1 636.86-5.25 637.69-4.4 637.69-3.25L637.69-3.25Q637.69-1.4 636.56-0.4 635.44 0.6 633.99 0.6Z" opacity="1" transform="matrix(1,0,0,1,0,0)" fill="#000000" class="slogan-text-1" data-fill-palette-color="quaternary" id="text-1"></path></svg></g></svg></g></svg></g></svg></g><g transform="matrix(1,0,0,1,0,4.789996532258662)"><svg viewBox="0 0 107.88097105978282 107.88097105978282" height="107.88097105978282" width="107.88097105978282"><g><svg xmlns="http://www.w3.org/2000/svg" xmlns:xlink="http://www.w3.org/1999/xlink" version="1.1" x="0" y="0" viewBox="10 10 510 510" style="enable-background:new 0 0 530 530;" xml:space="preserve" height="107.88097105978282" width="107.88097105978282" class="icon-icon-0" data-fill-palette-color="accent" id="icon-0"><g fill="#ffffff" data-fill-palette-color="accent"><g fill="#ffffff" data-fill-palette-color="accent"><g fill="#ffffff" data-fill-palette-color="accent"><g fill="#ffffff" data-fill-palette-color="accent"><path d="M113.112 216.223C169.967 216.223 216.224 169.967 216.224 113.111S169.967 10 113.112 10 10 56.256 10 113.112 56.256 216.223 113.112 216.223M113.112 31.786C157.955 31.786 194.437 68.268 194.437 113.111S157.955 194.436 113.112 194.436 31.787 157.954 31.787 113.111 68.268 31.786 113.112 31.786" fill="#ffffff" data-fill-palette-color="accent"></path><rect x="216.134" y="244.096" width="32.636" height="119.429" fill="#ffffff" data-fill-palette-color="accent"></rect><circle cx="113.112" cy="113.112" r="60" fill="#ffffff" data-fill-palette-color="accent"></circle><path d="M75.095 231.901V443.284C75.095 449.242 79.943 454.089 85.9 454.089H140.322C146.28 454.089 151.127 449.241 151.127 443.284V231.901C126.463 239.813 99.762 239.814 75.095 231.901M113.113 394.672C107.065 394.672 102.308 389.754 102.308 383.877 102.308 377.962 107.108 373.067 113.109 373.067 119.114 373.067 123.918 377.955 123.918 383.877 123.918 389.811 119.089 394.672 113.113 394.672M113.113 351.278C107.138 351.278 102.308 346.423 102.308 340.473 102.308 334.443 107.219 329.674 113.109 329.674 118.985 329.674 123.918 334.422 123.918 340.473 123.918 346.368 119.135 351.278 113.113 351.278M123.918 297.08C123.918 303.111 118.989 307.885 113.113 307.885 107.266 307.885 102.308 303.142 102.308 297.08 102.308 291.061 107.2 286.281 113.109 286.281 119.033 286.28 123.918 291.063 123.918 297.08" fill="#ffffff" data-fill-palette-color="accent"></path><path d="M172.738 443.284C172.738 461.158 158.197 475.699 140.323 475.699H85.9C68.026 475.699 53.485 461.157 53.485 443.284V222.632A125.3 125.3 0 0 1 31.699 207.521V498.258C31.699 510.247 41.452 520 53.441 520H172.782C184.771 520 194.524 510.247 194.524 498.258V207.521A125.3 125.3 0 0 1 172.738 222.632z" fill="#ffffff" data-fill-palette-color="accent"></path><polygon points="368.023,324.299 409.002,303.81 368.023,283.321     " fill="#ffffff" data-fill-palette-color="accent"></polygon><path d="M498.39 211.548H291.991C280.075 211.548 270.381 221.242 270.381 233.158V374.463C270.381 386.379 280.075 396.073 291.991 396.073H498.39C510.306 396.073 520 386.379 520 374.463V233.158C520 221.242 510.306 211.548 498.39 211.548M437.995 313.474L362.05 351.447C354.913 355.01 346.412 349.839 346.412 341.783V265.838C346.412 257.821 354.868 252.581 362.049 256.174L437.994 294.146C445.94 298.118 445.951 309.495 437.995 313.474" fill="#ffffff" data-fill-palette-color="accent"></path><path d="M395.19 146.538C389.314 146.538 384.385 151.313 384.385 157.349 384.385 163.427 389.361 168.154 395.19 168.154 401.023 168.154 405.995 163.423 405.995 157.349 405.996 151.544 401.279 146.538 395.19 146.538" fill="#ffffff" data-fill-palette-color="accent"></path><path d="M435.751 128.252C439.655 123.739 439.162 116.915 434.649 113.011 412.151 93.547 378.226 93.549 355.731 113.011 351.218 116.915 350.725 123.739 354.629 128.252 358.539 132.772 365.365 133.251 369.87 129.354 384.306 116.867 406.075 116.865 420.509 129.354 425.021 133.256 431.846 132.765 435.751 128.252" fill="#ffffff" data-fill-palette-color="accent"></path><path d="M348.014 88.065C374.907 64.796 415.471 64.795 442.366 88.065 446.889 91.977 453.71 91.467 457.607 86.963 461.511 82.45 461.018 75.626 456.505 71.722A93.72 93.72 0 0 0 395.198 48.89H395.188A93.73 93.73 0 0 0 333.874 71.722C329.361 75.626 328.868 82.45 332.772 86.963 336.678 91.476 343.501 91.968 348.014 88.065" fill="#ffffff" data-fill-palette-color="accent"></path></g></g></g></g></svg></g></svg></g></svg></g><defs></defs></svg><rect width="395.52" height="98.72782151541465" fill="none" stroke="none" visibility="hidden"></rect></g></svg></g></svg>